{"title":"The.Drownsman.2014.720p.WEB-DL.XviD.AC3-RARBG","uid":11884347,"size":2628610821,"categoryP":"video","categoryS":"hd___movies","magnet":"?xt=urn:btih:8779ce42ef3e236a46905105625015e40fcd6a6c&amp;dn=The.Drownsman.2014.720p.WEB-DL.XviD.AC3-RARBG&amp;tr=udp%3A%2F%2Ftracker.openbittorrent.com%3A80&amp;tr=udp%3A%2F%2Fopen.demonii.com%3A1337&amp;tr=udp%3A%2F%2Ftracker.coppersurfer.tk%3A6969&amp;tr=udp%3A%2F%2Fexodus.desync.com%3A6969","seeders":6,"leechers":3,"uploader":"vickey1992","files":5,"time":1430771900,"description":"Format                                   : AVI\nFormat/Info                              : Audio Video Interleave\nFormat profile                           : OpenDML\nFile size                                : 2.45 GiB\nDuration                                 : 1h 25mn\nOverall bit rate                         : 4 083 Kbps\nMovie name                               : RARBG.COM - The.Drownsman.2014.720p.WEB-DL.XviD.AC3-RARBG\nWriting library                          : VirtualDub build 35491/release\nComment                                  : RARBG.COM - The.Drownsman.2014.720p.WEB-DL.XviD.AC3-RARBG\n\nVideo\nID                                       : 0\nFormat                                   : MPEG-4 Visual\nFormat profile                           : Simple@L5\nFormat settings, BVOP                    : No\nFormat settings, QPel                    : No\nFormat settings, GMC                     : No warppoints\nFormat settings, Matrix                  : Default (H.263)\nCodec ID                                 : XVID\nCodec ID/Hint                            : XviD\nDuration                                 : 1h 25mn\nBit rate                                 : 3 688 Kbps\nWidth                                    : 1 280 pixels\nHeight                                   : 542 pixels\nDisplay aspect ratio                     : 2.35:1\nFrame rate                               : 23.976 fps\nColor space                              : YUV\nChroma subsampling                       : 4:2:0\nBit depth                                : 8 bits\nScan type                                : Progressive\nCompression mode                         : Lossy\nBits/(Pixel*Frame)                       : 0.222\nStream size                              : 2.21 GiB (90%)\nWriting library                          : Lavc56.13.100\n\nAudio\nID                                       : 1\nFormat                                   : AC-3\nFormat/Info                              : Audio Coding 3\nMode extension                           : CM (complete main)\nFormat settings, Endianness              : Big\nCodec ID                                 : 2000\nDuration                                 : 1h 25mn\nBit rate mode                            : Constant\nBit rate                                 : 384 Kbps\nChannel(s)                               : 6 channels\nChannel positions                        : Front: L C R, Side: L R, LFE\nSampling rate                            : 48.0 KHz\nBit depth                                : 16 bits\nCompression mode                         : Lossy\nStream size                              : 236 MiB (9%)\nAlignment                                : Aligned on interleaves\nInterleave, duration                     : 42 ms (1.00 video frame)\nInterleave, preload duration             : 512 ms\nNotes:\nGreetz to all!","torrent":{"xt":"urn:btih:8779ce42ef3e236a46905105625015e40fcd6a6c","amp;dn":"The.Drownsman.2014.720p.WEB-DL.XviD.AC3-RARBG","amp;tr":["udp%3A%2F%2Ftracker.openbittorrent.com%3A80","udp%3A%2F%2Fopen.demonii.com%3A1337","udp%3A%2F%2Ftracker.coppersurfer.tk%3A6969","udp%3A%2F%2Fexodus.desync.com%3A6969"],"infoHash":"8779ce42ef3e236a46905105625015e40fcd6a6c","infoHashBuffer":{"type":"Buffer","data":[135,121,206,66,239,62,35,106,70,144,81,5,98,80,21,228,15,205,106,108]},"announce":[],"urlList":[]}}